# xmcd
#
# Track frame offsets:
#	187
#	10105
#	35602
#	60910
#	90007
#	116162
#	141220
#	164027
#	190717
#	217070
#	224865
#
# Disc length: 3317 seconds
#
# Revision: 1
# Processed by: cddbd v1.5.1PL0 Copyright (c) Steve Scherf et al.
# Submitted via: CDex 1.50Beta5
#
DISCID=9e0cf30b
DTITLE=ELLIS - Tornado
DYEAR=1993
DGENRE=
TTITLE0=Never Forever Land
TTITLE1=Heaven
TTITLE2=誰かを好きになるかもしれない
TTITLE3=一滴の青いTokyo
TTITLE4=一日の終りに
TTITLE5=ZEROの部屋
TTITLE6=まるでタイムトラベル
TTITLE7=SNOW TRAIL
TTITLE8=君と朝をむかえたい
TTITLE9=Never Forever Land
TTITLE10=何もしてあげられない
EXTD=
EXTT0=
EXTT1=
EXTT2=
EXTT3=
EXTT4=
EXTT5=
EXTT6=
EXTT7=
EXTT8=
EXTT9=
EXTT10=
PLAYORDER=
